<svg xmlns="http://www.w3.org/2000/svg" xmlns:xlink="http://www.w3.org/1999/xlink" viewBox="0 0 100 100">
  <defs/>
  <defs>
    <linearGradient id="a" x1="0" x2="0" y1="0" y2="1">
      <stop offset="0%" stop-color="#39C0ED"/>
      <stop offset="100%" stop-color="#1266f1"/>
    </linearGradient>
    <linearGradient id="e" x1="0" x2="0" y1="0" y2="1">
      <stop offset="0%" stop-color="#39C0ED"/>
      <stop offset="100%" stop-color="#1266f1"/>
    </linearGradient>
    <path id="b" fill="url(#a)" d="M90.75 23.05q-1.25 0-1.9 1.1-.7 1.1 0 2.2 8.4 13.85 6.3 29.8-2.1 15.5-13.4 26.45-11.4 11.1-26.85 12.65-21.95 2.3-37.3-13.4Q2.2 66.2 4.85 44.2q1.75-14 11.3-24.5 9.5-10.6 23.1-13.9 11.3-2.8 22.45.15 1.15.35 2-.3.9-.65.9-1.8 0-1.6-1.65-2.15Q52.55-1.1 41.6.65 25.55 3.3 14.4 14.85 3.1 26.25.65 42.4-2.95 66.9 14 84.5q16.85 17.6 41.2 15.2 17.4-1.8 30-14.3 12.75-12.6 14.5-30.05 1.75-16.8-6.95-31.3-.7-1-2-1z"/>
    <path id="d" d="M8.3 8.2c-.2-.1-.4-.1-.6 0l-3.6 2.7L8 14l3.9-3.1-3.6-2.7zM3.5 23.6c0 .2.1.3.2.4l3.8 2.8v-12l-4-3.2v12zm5 3.3l3.8-2.8c.1-.1.2-.2.2-.4v-12l-4 3.2v12zm9.8-29.7c-.2-.1-.4-.1-.6 0L14.1-.1 18 3l3.9-3.1-3.6-2.7zm-4.8 26.4c0 .2.1.3.2.4l3.8 2.8v-23l-4-3.2v23zm5 3.3l3.8-2.8c.1-.1.2-.2.2-.4V.7l-4 3.2v23zm5-3.3c0 .2.1.3.2.4l3.8 2.8v-17l-4-3.1v16.9zm4.8-20.4c-.2-.1-.4-.1-.6 0l-3.6 2.7L28 9l3.9-3.1-3.6-2.7zm.2 6.7v17l3.8-2.8c.1-.1.2-.2.2-.4v-17l-4 3.2z" transform="matrix(3.3557 0 0 3.3557 -10.40267838 9.73154615)"/>
    <mask id="c">
      <path fill="#FFF" d="M82.2 82.15q13.3-13.3 13.3-32.2 0-18.85-13.3-32.15Q68.85 4.5 50 4.5T17.8 17.8Q4.5 31.1 4.5 49.95q0 18.9 13.3 32.2 13.35 13.3 32.2 13.3t32.2-13.3z"/>
    </mask>
  </defs>
  <use fill="url(#a)" xlink:href="#b"/>
  <g mask="url(#c)">
    <use fill="url(#e)" transform="matrix(.5 0 0 .5 25 25)" xlink:href="#d"/>
  </g>
</svg>
